<?xml version="1.0" encoding="utf-8"?>
<!-- Generator: Adobe Illustrator 24.1.0, SVG Export Plug-In . SVG Version: 6.00 Build 0)  -->
<svg version="1.1" id="Ebene_1" xmlns="http://www.w3.org/2000/svg" xmlns:xlink="http://www.w3.org/1999/xlink" x="0px"
     y="0px"
     viewBox="0 0 800 82" style="enable-background:new 0 0 800 82;" xml:space="preserve">
<style type="text/css">
	.st0{fill:#FFFFFF;}
</style>
    <path class="st0" d="M800,81.9V0.1H257.1v81.8H800z M306.3,44.7c3.3,0.6,5,2.1,7.4,5.1l3.5,4.4h-11.1l-6.6-8.5h-15v8.5h-9.7V27.9
	H304c8.3,0,12.7,2.8,12.7,8.6v0.2C316.6,41.1,313.9,44.3,306.3,44.7L306.3,44.7z M355.7,45.3h-25.8v0.4c0,2.7,2.9,3.9,11.1,3.9
	c4.6,0,9.1-0.7,13.4-2.1h0.1V53c-5.1,1.1-10.4,1.6-15.6,1.6c-13.2,0-18.7-3.4-18.7-10.6v-0.8c0-7,5.6-10.4,17.8-10.4
	s17.7,3,17.7,10.3L355.7,45.3L355.7,45.3z M392.8,53c-4.8,1-9.8,1.6-14.7,1.6c-13.2,0-18.9-3.4-18.9-10.6v-0.8
	c0-7.2,5.7-10.5,18.9-10.5c5-0.1,9.9,0.5,14.7,1.6v5.5h-0.2c-3.9-1.3-8-2-12.2-2c-7.8,0-11.5,1.6-11.5,5.3v1c0,3.8,3.8,5.3,11.5,5.3
	c4.1,0,8.2-0.7,12.2-2h0.2V53L392.8,53z M432.9,54.2h-9.6v-9.8c0-4.2-2.6-6-8-6c-2.7,0-5.4,0.6-7.8,1.8v14h-9.6V27.8h9.6v9.4h0.2
	c2.7-2.9,7.5-4.5,12.8-4.5c7.6,0,12.4,2.6,12.4,9.4L432.9,54.2L432.9,54.2z M470.4,53c-3.9,1-8,1.6-12,1.6
	c-11.5,0-16.1-2.7-16.1-9.7v-6.4h-6.5v-5.2h6.7v-3.4l9.2-1.3v4.7h17.3v5.2h-17.2v5.5c0,4.2,2.6,5.5,8.8,5.5c3.3,0,6.6-0.7,9.7-1.9
	l0,0V53z M483.8,39.2c0,1.3,1.3,1.9,10.3,2.5c12.1,0.8,15.7,2.7,15.7,6.6s-3.4,6.3-19.1,6.3c-5.5,0-11-0.5-16.4-1.6v-5.6h0.1
	c5.3,1.7,10.9,2.5,16.4,2.5c7.9,0,9.4-0.5,9.4-1.9c0-1.4-1.2-1.9-10.2-2.5c-12.1-0.8-15.7-2.6-15.7-6.5c0-4.2,3.4-6.1,18.9-6.1
	c5.4-0.1,10.8,0.4,16.1,1.6v5.5h-0.1c-5.2-1.7-10.6-2.5-16-2.4c-7.8,0-9.3,0.3-9.3,1.6L483.8,39.2z M549.8,54.2h-9.6v-3H540
	c-2.9,2.4-8.8,3.4-13.9,3.4c-8.9,0-12.6-1.7-12.6-6.1v-0.3c0-4.2,3.9-6,14.9-6.2l11.7-0.2v-0.4c0-2.4-3.6-3.6-10.2-3.6
	c-5.2-0.1-10.4,0.7-15.5,2.1h0v-5.5c5.3-1.1,10.6-1.6,16-1.6c13.8,0,19.3,2.5,19.3,10.3L549.8,54.2L549.8,54.2z M590.3,54.2h-9.6
	v-9.8c0-4.2-2.6-6-8-6c-2.7,0-5.4,0.6-7.8,1.8v14h-9.6v-21h9.7v4.1h0.2c2.7-2.9,7.4-4.5,12.8-4.5c7.6,0,12.4,2.6,12.4,9.4
	L590.3,54.2L590.3,54.2z M650.3,33.2l-11.5,21H629l-7-13h-0.3l-7.1,13h-10.1l-11.4-21h10.3l7.3,14.3h0.3l7.4-14.3h8.8l7.4,14.3h0.2
	l7.4-14.3L650.3,33.2z M668.2,29.3c0,1.1-0.7,2-4.1,2s-4.1-0.8-4.1-2s0.6-1.9,4.1-1.9C667.6,27.4,668.2,28.1,668.2,29.3z
	 M680.8,29.3c0,1.1-0.6,2-4.1,2s-4-0.8-4-2s0.6-1.9,4-1.9S680.8,28.1,680.8,29.3z M688.6,54.2H679v-3h-0.2
	c-2.9,2.4-8.7,3.4-13.9,3.4c-8.9,0-12.6-1.7-12.6-6.1v-0.3c0-4.2,3.9-6,14.9-6.2l11.7-0.2v-0.4c0-2.4-3.6-3.6-10.2-3.6
	c-5.2-0.1-10.4,0.7-15.4,2.1h-0.1v-5.5c5.3-1.1,10.6-1.6,16-1.6c13.8,0,19.3,2.5,19.3,10.3L688.6,54.2L688.6,54.2z M703.8,54.2h-9.7
	V27.8h9.7V54.2z M741.7,53c-3.9,1-8,1.6-12,1.6c-11.5,0-16.1-2.7-16.1-9.7v-6.4h-6.5v-5.2h6.7v-3.4l9.3-1.3v4.7h17.3v5.2h-17.2v5.5
	c0,4.2,2.6,5.5,8.8,5.5c3.3,0,6.6-0.7,9.6-2h0.1L741.7,53L741.7,53z M780.8,45.3h-25.7v0.4c0,2.7,2.9,3.9,11.1,3.9
	c4.6,0,9.1-0.7,13.4-2.1h0.1V53c-5.1,1.1-10.4,1.6-15.6,1.6c-13.2,0-18.7-3.4-18.7-10.6v-0.8c0-7,5.6-10.4,17.8-10.4
	s17.7,3,17.7,10.3L780.8,45.3L780.8,45.3z M755,42h16.2v-0.3c0-2.9-2.5-4.2-8.1-4.2c-5.6,0-8.1,1.4-8.1,4.2V42z M669.8,50.2
	c3.2,0.1,6.3-0.5,9.2-1.9V45l-8.1,0.3c-7.5,0.2-9.1,0.7-9.1,2.4v0.2C661.8,49.4,663.4,50.2,669.8,50.2L669.8,50.2z M530.9,50.2
	c3.2,0.1,6.3-0.5,9.2-1.9V45l-8.1,0.3c-7.4,0.2-9.1,0.7-9.1,2.4v0.2C523,49.4,524.6,50.2,530.9,50.2z M329.8,42h16.3v-0.3
	c0-2.9-2.5-4.2-8.1-4.2s-8.1,1.4-8.1,4.2L329.8,42L329.8,42z M306.9,36.9v-0.2c0-2.5-1.9-3.4-6.1-3.4h-16.3v7h16.3
	C305.1,40.3,306.9,39.4,306.9,36.9z M0,81.9h253.8V0.1H0V81.9z M225.6,27.8h9.7v26.4h-9.7V27.8z M185.3,43.2c0-7,5.6-10.4,17.8-10.4
	c12.3,0,17.7,3,17.7,10.3v2.2h-25.8v0.4c0,2.7,2.9,3.9,11.1,3.9c4.6,0,9.1-0.7,13.4-2.1h0.1V53c-5.1,1.1-10.4,1.6-15.6,1.6
	c-13.3,0-18.7-3.4-18.7-10.6V43.2z M172.3,48c0-1.3-1.2-1.9-10.2-2.5c-12.1-0.8-15.7-2.6-15.7-6.5c0-4.2,3.4-6.1,18.9-6.1
	c5.4-0.1,10.8,0.4,16.1,1.6v5.5l0,0c-5.2-1.6-10.7-2.4-16.2-2.3c-7.8,0-9.3,0.3-9.3,1.6c0,1.2,1.3,1.9,10.3,2.5
	c12.1,0.8,15.7,2.7,15.7,6.6s-3.4,6.3-19.1,6.3c-5.5,0-11-0.5-16.4-1.6v-5.6l0,0c5.3,1.7,10.9,2.5,16.4,2.5
	C170.8,49.9,172.4,49.4,172.3,48L172.3,48z M106.7,33.2h9.7v4.1h0.2c2.7-2.9,7.4-4.5,12.8-4.5c7.6,0,12.4,2.6,12.4,9.4v12h-9.6v-9.8
	c0-4.2-2.6-6-8-6c-2.7,0-5.3,0.6-7.7,1.8v14h-9.7V33.2z M65,48.3c0-4.2,3.8-6,14.9-6.2l11.7-0.2v-0.4c0-2.4-3.6-3.6-10.2-3.6
	c-5.2-0.1-10.4,0.7-15.5,2.1l0,0v-5.5c5.2-1.1,10.6-1.7,15.9-1.6c13.8,0,19.3,2.5,19.3,10.3v11.1h-9.5v-3h-0.2
	c-2.9,2.4-8.8,3.4-13.9,3.4c-8.9,0-12.6-1.7-12.6-6.1L65,48.3L65,48.3z M17.4,40.5c0-9.3,7.1-13.1,23-13.1c6.5,0,13,0.7,19.4,1.9
	v5.9l0,0c-5.5-1.3-11.1-1.9-16.8-1.9c-11,0-15.6,2-15.6,7.3v1.1c0,5.2,4.4,7.2,15.1,7.2c2.9,0,5.8-0.5,8.5-1.5V43H37.8v-4.5h22.3
	v13.2c-6.4,1.9-13.1,2.9-19.8,2.9c-15.9,0-22.9-3.8-22.9-13V40.5z M74.4,47.6v0.2c0,1.6,1.6,2.3,7.9,2.3c3.2,0.1,6.4-0.5,9.3-1.9V45
	l-8.1,0.3C76,45.4,74.4,46,74.4,47.6L74.4,47.6z M195.1,41.7V42h16.2v-0.3c0-2.9-2.5-4.2-8.1-4.2C197.5,37.5,195.1,38.9,195.1,41.7z
	"/>
</svg>
